<mxfile host="app.diagrams.net" modified="2023-11-28T05:07:58.059Z" agent="Mozilla/5.0 (X11; Linux x86_64) AppleWebKit/537.36 (KHTML, like Gecko) Chrome/119.0.0.0 Safari/537.36" version="21.5.2" etag="KVqxKP4u7lTCPiL3ai3C" type="github">
  <diagram name="페이지-1" id="4k6ZoVVYPo4Wh-_sgIT6">
    <mxGraphModel>
      <root>
        <mxCell id="0" />
        <mxCell id="1" parent="0" />
      </root>
    </mxGraphModel>
  </diagram>
</mxfile>
